<svg width="126" height="49" viewBox="0 0 126 49" fill="none" xmlns="http://www.w3.org/2000/svg">
<path d="M49 17.1818V22.8636H34.625V17.1818H49ZM37.4091 11.9545H45.25V31.983C45.25 32.286 45.3021 32.5417 45.4062 32.75C45.5104 32.9489 45.6714 33.1004 45.8892 33.2045C46.107 33.2992 46.3864 33.3466 46.7273 33.3466C46.964 33.3466 47.2386 33.3182 47.5511 33.2614C47.8731 33.2045 48.1098 33.1572 48.2614 33.1193L49.3977 38.6307C49.0473 38.7348 48.5455 38.8627 47.892 39.0142C47.2481 39.1657 46.4811 39.2652 45.5909 39.3125C43.7917 39.4072 42.2813 39.2225 41.0597 38.7585C39.8381 38.285 38.9195 37.5417 38.304 36.5284C37.6884 35.5152 37.3902 34.2462 37.4091 32.7216V11.9545ZM62.4766 39.3977C60.1091 39.3977 58.0826 38.929 56.397 37.9915C54.7114 37.0445 53.4188 35.7282 52.5192 34.0426C51.6196 32.3475 51.1697 30.3826 51.1697 28.1477C51.1697 25.9129 51.6196 23.9527 52.5192 22.267C53.4188 20.572 54.7114 19.2557 56.397 18.3182C58.0826 17.3712 60.1091 16.8977 62.4766 16.8977C64.844 16.8977 66.8705 17.3712 68.5561 18.3182C70.2417 19.2557 71.5343 20.572 72.4339 22.267C73.3336 23.9527 73.7834 25.9129 73.7834 28.1477C73.7834 30.3826 73.3336 32.3475 72.4339 34.0426C71.5343 35.7282 70.2417 37.0445 68.5561 37.9915C66.8705 38.929 64.844 39.3977 62.4766 39.3977ZM62.5334 33.6023C63.1963 33.6023 63.7692 33.3797 64.2521 32.9347C64.7351 32.4896 65.1091 31.8551 65.3743 31.0312C65.6394 30.2074 65.772 29.2273 65.772 28.0909C65.772 26.9451 65.6394 25.965 65.3743 25.1506C65.1091 24.3267 64.7351 23.6922 64.2521 23.2472C63.7692 22.8021 63.1963 22.5795 62.5334 22.5795C61.8326 22.5795 61.2313 22.8021 60.7294 23.2472C60.2275 23.6922 59.844 24.3267 59.5788 25.1506C59.3137 25.965 59.1811 26.9451 59.1811 28.0909C59.1811 29.2273 59.3137 30.2074 59.5788 31.0312C59.844 31.8551 60.2275 32.4896 60.7294 32.9347C61.2313 33.3797 61.8326 33.6023 62.5334 33.6023Z" fill="#4EA8DE"/>
<path d="M84.8629 39.2841C83.3099 39.2841 81.88 38.8769 80.5732 38.0625C79.2758 37.2481 78.2341 36.0123 77.4482 34.3551C76.6716 32.6979 76.2834 30.6098 76.2834 28.0909C76.2834 25.4583 76.6906 23.3182 77.505 21.6705C78.3288 20.0227 79.3894 18.8153 80.6868 18.0483C81.9936 17.2812 83.3667 16.8977 84.8061 16.8977C85.8857 16.8977 86.8326 17.0871 87.647 17.4659C88.4614 17.8352 89.1432 18.3324 89.6925 18.9574C90.2417 19.5729 90.6584 20.25 90.9425 20.9886H91.0561V9.90909H98.897V39H91.1129V35.4205H90.9425C90.6394 36.1591 90.2038 36.822 89.6357 37.4091C89.0769 37.9867 88.3951 38.446 87.5902 38.7869C86.7947 39.1184 85.8857 39.2841 84.8629 39.2841ZM87.7607 33.2614C88.4804 33.2614 89.0959 33.053 89.6072 32.6364C90.1281 32.2102 90.5258 31.6136 90.8004 30.8466C91.0845 30.0701 91.2266 29.1515 91.2266 28.0909C91.2266 27.0114 91.0845 26.0881 90.8004 25.321C90.5258 24.5445 90.1281 23.9527 89.6072 23.5455C89.0959 23.1288 88.4804 22.9205 87.7607 22.9205C87.041 22.9205 86.4254 23.1288 85.9141 23.5455C85.4122 23.9527 85.0239 24.5445 84.7493 25.321C84.4841 26.0881 84.3516 27.0114 84.3516 28.0909C84.3516 29.1705 84.4841 30.0985 84.7493 30.875C85.0239 31.642 85.4122 32.2339 85.9141 32.6506C86.4254 33.0578 87.041 33.2614 87.7607 33.2614ZM113.258 39.3977C110.89 39.3977 108.864 38.929 107.178 37.9915C105.493 37.0445 104.2 35.7282 103.3 34.0426C102.401 32.3475 101.951 30.3826 101.951 28.1477C101.951 25.9129 102.401 23.9527 103.3 22.267C104.2 20.572 105.493 19.2557 107.178 18.3182C108.864 17.3712 110.89 16.8977 113.258 16.8977C115.625 16.8977 117.652 17.3712 119.337 18.3182C121.023 19.2557 122.316 20.572 123.215 22.267C124.115 23.9527 124.565 25.9129 124.565 28.1477C124.565 30.3826 124.115 32.3475 123.215 34.0426C122.316 35.7282 121.023 37.0445 119.337 37.9915C117.652 38.929 115.625 39.3977 113.258 39.3977ZM113.315 33.6023C113.978 33.6023 114.55 33.3797 115.033 32.9347C115.516 32.4896 115.89 31.8551 116.156 31.0312C116.421 30.2074 116.553 29.2273 116.553 28.0909C116.553 26.9451 116.421 25.965 116.156 25.1506C115.89 24.3267 115.516 23.6922 115.033 23.2472C114.55 22.8021 113.978 22.5795 113.315 22.5795C112.614 22.5795 112.013 22.8021 111.511 23.2472C111.009 23.6922 110.625 24.3267 110.36 25.1506C110.095 25.965 109.962 26.9451 109.962 28.0909C109.962 29.2273 110.095 30.2074 110.36 31.0312C110.625 31.8551 111.009 32.4896 111.511 32.9347C112.013 33.3797 112.614 33.6023 113.315 33.6023Z" fill="#5E60CE"/>
<g clip-path="url(#clip0_43_109)">
<path d="M11.0215 13.2025C14.1472 17.2532 15.8158 22.2484 15.7553 27.3742V28.5977L16.7865 29.2383C18.119 30.0617 19.1127 31.3389 19.5866 32.837C19.1705 32.5243 18.7352 32.2382 18.2833 31.9805L15.5333 30.4043L15.0391 33.5855C14.9963 33.8667 14.9389 34.1453 14.8672 34.4204H7.16151C7.04692 34.0606 6.95382 33.7007 6.86789 33.3264L6.24484 30.4475L3.70968 31.887C3.28615 32.1287 2.87723 32.3955 2.48507 32.6859C2.96824 31.205 3.94123 29.9351 5.24224 29.0872L6.22336 28.4466V27.3094C6.24106 22.2045 7.92967 17.2472 11.0287 13.2025H11.0215ZM11.0287 10.2083C10.868 10.2087 10.7128 10.2675 10.5918 10.3739L10.5274 10.4315C6.39778 15.0733 4.10466 21.0756 4.08208 27.3022C2.32967 28.4449 1.03251 30.1701 0.417263 32.1764C-0.197979 34.1826 -0.0921719 36.3424 0.716194 38.2783C1.56776 36.3881 2.99131 34.8164 4.7839 33.7871C4.96368 34.5697 5.2031 35.3373 5.50005 36.083C5.53771 36.2264 5.62118 36.3534 5.73763 36.4444C5.85408 36.5354 5.99706 36.5855 6.14458 36.5869H16.0847C16.2852 36.5869 16.4857 36.3925 16.586 36.0902C16.8758 35.3813 17.0778 34.6392 17.1875 33.8806C18.9836 34.9056 20.4083 36.4786 21.2553 38.3718C22.1124 36.4455 22.2451 34.2721 21.6287 32.2549C21.0124 30.2378 19.6888 28.5138 17.9037 27.403C17.9745 21.1396 15.6935 15.0795 11.5157 10.4315C11.4535 10.3616 11.3773 10.3056 11.2922 10.2671C11.2071 10.2287 11.1149 10.2087 11.0215 10.2083H11.0287Z" fill="#4EA8DE"/>
<path d="M11.0216 26.7048C10.4715 26.7048 9.93376 26.5411 9.47611 26.2344C9.01846 25.9277 8.6614 25.4917 8.44993 24.9814C8.23847 24.471 8.18206 23.9092 8.28782 23.3667C8.39358 22.8242 8.65678 22.3253 9.04423 21.9329C9.43169 21.5405 9.92606 21.2721 10.465 21.1617C11.004 21.0512 11.5634 21.1036 12.0728 21.3122C12.5822 21.5208 13.0188 21.8763 13.3275 22.3339C13.6361 22.7914 13.8031 23.3306 13.8074 23.8834V23.8834C13.8159 24.2417 13.7542 24.5981 13.6256 24.9324C13.4971 25.2666 13.3043 25.5721 13.0582 25.8315C12.8121 26.0908 12.5176 26.2989 12.1915 26.4438C11.8654 26.5887 11.5141 26.6676 11.1576 26.676C11.1126 26.6833 11.0666 26.6833 11.0216 26.676V26.7048Z" fill="#4EA8DE"/>
<path d="M14.8959 38.379C14.7167 38.3733 14.5382 38.4035 14.3708 38.468C14.2034 38.5326 14.0505 38.63 13.9211 38.7547C13.7917 38.8794 13.6884 39.0288 13.6172 39.1942C13.546 39.3596 13.5084 39.5376 13.5066 39.7177V43.9642C13.5066 44.3345 13.653 44.6897 13.9135 44.9515C14.1741 45.2134 14.5274 45.3605 14.8959 45.3605C15.2644 45.3605 15.6178 45.2134 15.8783 44.9515C16.1389 44.6897 16.2852 44.3345 16.2852 43.9642V39.7753C16.291 39.5958 16.2611 39.417 16.1973 39.2492C16.1336 39.0815 16.0372 38.9281 15.9139 38.7982C15.7906 38.6682 15.6428 38.5642 15.4791 38.4922C15.3154 38.4203 15.139 38.3818 14.9604 38.379H14.8959Z" fill="#5E60CE"/>
<path d="M7.16154 38.379C6.97931 38.3693 6.797 38.3966 6.62546 38.4592C6.45392 38.5217 6.29665 38.6183 6.16302 38.7432C6.02939 38.8681 5.92213 39.0188 5.84761 39.1862C5.77309 39.3536 5.73284 39.5344 5.72925 39.7178V43.9642C5.72925 44.3345 5.87562 44.6897 6.13617 44.9516C6.39672 45.2134 6.7501 45.3605 7.11857 45.3605C7.48704 45.3605 7.84042 45.2134 8.10097 44.9516C8.36152 44.6897 8.50789 44.3345 8.50789 43.9642V39.7753C8.51362 39.5958 8.48373 39.417 8.41998 39.2492C8.35623 39.0815 8.25989 38.9281 8.13658 38.7982C8.01326 38.6682 7.86544 38.5642 7.70173 38.4923C7.53802 38.4203 7.36169 38.3818 7.18302 38.379H7.16154Z" fill="#5E60CE"/>
<path d="M10.9213 38.379C10.7426 38.3752 10.5649 38.4068 10.3984 38.472C10.2318 38.5372 10.0797 38.6348 9.95068 38.7591C9.82167 38.8834 9.71828 39.0321 9.64644 39.1966C9.5746 39.361 9.5357 39.5381 9.53198 39.7177V45.5692C9.53198 45.9396 9.67836 46.2947 9.93891 46.5566C10.1995 46.8184 10.5528 46.9655 10.9213 46.9655C11.2898 46.9655 11.6432 46.8184 11.9037 46.5566C12.1643 46.2947 12.3106 45.9396 12.3106 45.5692V39.8113C12.3164 39.6318 12.2865 39.453 12.2227 39.2852C12.159 39.1174 12.0626 38.9641 11.9393 38.8341C11.816 38.7042 11.6682 38.6002 11.5045 38.5282C11.3408 38.4563 11.1644 38.4178 10.9858 38.415L10.9213 38.379Z" fill="#5E60CE"/>
</g>
<defs>
<clipPath id="clip0_43_109">
<rect width="22" height="36.75" fill="white" transform="translate(0 10.2083)"/>
</clipPath>
</defs>
</svg>
